<?xml version="1.0" encoding="iso-8859-1"?>
<!-- Generator: Adobe Illustrator 19.0.0, SVG Export Plug-In . SVG Version: 6.00 Build 0)  -->
<svg version="1.1" id="Layer_1" xmlns="http://www.w3.org/2000/svg" xmlns:xlink="http://www.w3.org/1999/xlink" x="0px" y="0px"
	 viewBox="0 0 512 512" style="enable-background:new 0 0 512 512;" xml:space="preserve">
<polygon style="fill:#FFD47D;" points="256.001,18.245 36.572,237.672 36.572,512 171.605,512 256.001,478.242 340.396,512 
	475.429,512 475.429,237.672 "/>
<rect x="171.605" y="301.573" style="fill:#FFA72E;" width="168.791" height="210.426"/>
<path style="fill:#FF615C;" d="M507.056,244.065L267.935,4.944c-6.591-6.592-17.279-6.592-23.87,0L4.944,244.065
	c-6.592,6.592-6.592,17.279,0,23.87c6.591,6.592,17.279,6.592,23.87,0L256.001,40.75l227.186,227.185
	c6.591,6.592,17.279,6.592,23.87,0C513.648,261.344,513.648,250.657,507.056,244.065z"/>
<circle style="fill:#FF8B00;" cx="301.012" cy="406.787" r="14.066"/>
<g>
</g>
<g>
</g>
<g>
</g>
<g>
</g>
<g>
</g>
<g>
</g>
<g>
</g>
<g>
</g>
<g>
</g>
<g>
</g>
<g>
</g>
<g>
</g>
<g>
</g>
<g>
</g>
<g>
</g>
</svg>
