<?xml version="1.0" encoding="iso-8859-1"?>
<!-- Generator: Adobe Illustrator 19.0.0, SVG Export Plug-In . SVG Version: 6.00 Build 0)  -->
<svg version="1.1" id="Layer_1" xmlns="http://www.w3.org/2000/svg" xmlns:xlink="http://www.w3.org/1999/xlink" x="0px" y="0px"
	 viewBox="0 0 331.66 331.66" style="enable-background:new 0 0 331.66 331.66;" xml:space="preserve">
<g id="XMLID_5_">
	<g id="XMLID_55_">
		<g id="XMLID_1169_">
			<path id="XMLID_1170_" style="fill:#F3D8B6;" d="M249.018,236.041c-18.667-6.681-51.458-11.736-51.458-81.376h-29.23h-5.002
				h-29.229c0,69.64-32.791,74.695-51.458,81.376c0,47.368,68.832,48.824,80.688,53.239v1.537c0,0,0.922-0.188,2.501-0.68
				c1.579,0.492,2.501,0.68,2.501,0.68v-1.537C180.186,284.865,249.018,283.409,249.018,236.041z"/>
		</g>
		<path id="XMLID_1171_" style="fill:#EEC8A2;" d="M197.561,154.665h-29.23h-2.501v135.472c1.579,0.492,2.501,0.68,2.501,0.68
			v-1.537c11.856-4.414,80.688-5.871,80.688-53.239C230.352,229.36,197.561,224.305,197.561,154.665z"/>
	</g>
	<g id="XMLID_51_">
		<g id="XMLID_1172_">
			<path id="XMLID_1173_" style="fill:#B7CAE9;" d="M285.811,290.913v40.681H45.848v-40.681c0-30.431,17.377-56.963,40.605-70.913
				c6.043-3.641,19.69-7.43,26.844-9.196c5.953-1.488,53.438,12.729,53.438,12.729s48.674-13.218,54.627-11.729
				c7.154,1.766,17.802,4.554,23.844,8.196C268.434,233.95,285.811,260.482,285.811,290.913z"/>
		</g>
		<path id="XMLID_1174_" style="fill:#96B3D4;" d="M245.207,219.999c-6.042-3.642-16.69-6.43-23.844-8.196
			c-5.953-1.488-54.627,11.729-54.627,11.729s-0.321-0.096-0.906-0.27v108.33h119.982v-40.681
			C285.811,260.481,268.434,233.95,245.207,219.999z"/>
	</g>
	<g id="XMLID_47_">
		<g id="XMLID_1175_">
			<path id="XMLID_1176_" style="fill:#F3DBC4;" d="M165.832,176.828c-27.454,0-48.409-23.119-57.799-40.456
				s-15.888-79.445,4.34-106.897c19.808-26.883,53.459-13.838,53.459-13.838s33.649-13.045,53.458,13.838
				c20.226,27.452,13.726,89.56,4.335,106.897C214.233,153.708,193.28,176.828,165.832,176.828z"/>
		</g>
		<path id="XMLID_1177_" style="fill:#EDCEAE;" d="M219.29,29.475c-19.81-26.883-53.458-13.838-53.458-13.838l-0.002-0.001v161.192
			c0.001,0,0.001,0,0.002,0c27.449,0,48.401-23.119,57.794-40.456C233.016,119.035,239.516,56.927,219.29,29.475z"/>
	</g>
	<g id="XMLID_44_">
		<path id="XMLID_1178_" style="fill:#3A4755;" d="M240.83,217.63v114.03h-60.4l39.14-120.99
			C227.2,211.94,234.32,214.31,240.83,217.63z"/>
		<polygon id="XMLID_1179_" style="fill:#455465;" points="112.09,210.67 151.23,331.66 90.83,331.66 90.83,217.631 		"/>
	</g>
	<g id="XMLID_40_">
		<g id="XMLID_1180_">
			<path id="XMLID_1181_" style="fill:#D16154;" d="M187.2,209.246l-21.37,9.543l-21.37-9.543c-4.218-1.883-9.489,0.471-9.489,4.237
				v24.39c0,3.766,5.272,6.121,9.489,4.237l21.37-9.543l21.37,9.543c4.218,1.883,9.489-0.471,9.489-4.237v-24.39
				C196.689,209.717,191.418,207.363,187.2,209.246z"/>
		</g>
		<path id="XMLID_1182_" style="fill:#B55044;" d="M187.2,209.246l-21.37,9.542v13.78l21.37,9.542
			c4.218,1.883,9.489-0.471,9.489-4.237v-24.391C196.689,209.717,191.418,207.363,187.2,209.246z"/>
	</g>
	<g id="XMLID_34_">
		<g id="XMLID_1183_">
			<path id="XMLID_1186_" style="fill:#E1A98C;" d="M223.285,25.321c-2.159,0.08-12.282-31.303-39.282-24.303
				c-18.537,4.806-20.877,7.419-28.12,9.463c-29.41-9.014-57.539,14.472-56.495,36.488c1.759,37.07-4.778,36.505-0.295,49.454
				s8.466,23.407,8.466,23.407s0.996,3.565,2.988-16.854s-4.705-31.379,11.137-31.379c52.452,0-19.698,20.372,13.952,20.372
				c33.391,0,59.203-27.381,74.92-29.372c15.716-1.992,9.145,19.96,11.137,40.379s2.988,16.854,2.988,16.854
				s8.92-9.712,8.466-23.407C232.637,80.968,239.517,24.718,223.285,25.321z"/>
		</g>
		<path id="XMLID_1187_" style="fill:#D2987B;" d="M223.285,25.321c-2.159,0.08-12.282-31.303-39.282-24.303
			c-9.171,2.378-14.375,4.218-18.173,5.719v78.302c18.973-8.253,34.142-21.102,44.726-22.443
			c15.717-1.992,9.145,19.96,11.137,40.379s2.988,16.854,2.988,16.854s8.92-9.712,8.466-23.407
			C232.637,80.969,239.517,24.719,223.285,25.321z"/>
	</g>
	<g id="XMLID_6_">
		
			<ellipse id="XMLID_33_" transform="matrix(0.3543 -0.9351 0.9351 0.3543 45.1821 283.6676)" style="fill:#EDCEAE;" cx="228.004" cy="109.116" rx="17.187" ry="10.048"/>
		
			<ellipse id="XMLID_32_" transform="matrix(0.3543 0.9351 -0.9351 0.3543 168.9701 -26.4685)" style="fill:#F3DBC4;" cx="103.652" cy="109.122" rx="17.187" ry="10.048"/>
	</g>
</g>
<g>
</g>
<g>
</g>
<g>
</g>
<g>
</g>
<g>
</g>
<g>
</g>
<g>
</g>
<g>
</g>
<g>
</g>
<g>
</g>
<g>
</g>
<g>
</g>
<g>
</g>
<g>
</g>
<g>
</g>
</svg>
